<svg width="14" height="14" viewBox="0 0 14 14" xmlns="http://www.w3.org/2000/svg"><title>Shape</title><path d="M3.29 8.486c-.438-.314-.852-.47-1.238-.47-.352 0-.757.16-1.217.482-.46.322-.69.7-.69 1.135 0 .3.202.67.606 1.115.705.773 1.24 1.445 1.61 2.014.357.54.574.844.65.914.076.07.185.137.325.197.14.062.463.092.967.092.64 0 1.062-.062 1.267-.188.204-.127.356-.264.456-.41.1-.146.322-.64.668-1.484.732-1.84 1.724-3.742 2.972-5.705s2.45-3.475 3.604-4.535c.24-.23.398-.4.475-.514.077-.116.113-.25.113-.41 0-.206-.065-.37-.197-.498-.132-.126-.3-.19-.506-.19-.31 0-.768.048-1.37.142-.604.094-1.024.243-1.262.448-.237.205-.527.482-.87.83-.343.35-.887 1.057-1.634 2.124C7.27 4.644 6.6 5.712 6.006 6.786c-.59 1.072-1.1 2.056-1.528 2.952-.352-.52-.748-.94-1.187-1.252z" fill="#FFF" fill-rule="evenodd"/></svg>